<svg width="17" height="19" viewBox="0 0 17 19" fill="none" xmlns="http://www.w3.org/2000/svg">
<path d="M0.0625 11.2979C0.0625 10.6357 0.191406 10.0264 0.449219 9.46973C0.712891 8.91309 1.05859 8.38867 1.48633 7.89648C1.91992 7.39844 2.40332 6.91211 2.93652 6.4375C3.46973 5.95703 4.01465 5.46484 4.57129 4.96094C5.12793 4.45117 5.65527 3.90625 6.15332 3.32617C6.65137 2.74023 7.08203 2.08984 7.44531 1.375C7.55664 1.16406 7.69434 0.991211 7.8584 0.856445C8.02246 0.71582 8.23633 0.645508 8.5 0.645508C8.76367 0.645508 8.97754 0.71582 9.1416 0.856445C9.30566 0.991211 9.44336 1.16406 9.55469 1.375C9.91797 2.08984 10.3486 2.74023 10.8467 3.32617C11.3447 3.90625 11.8691 4.45117 12.4199 4.96094C12.9766 5.46484 13.5215 5.95703 14.0547 6.4375C14.5938 6.91211 15.0771 7.39844 15.5049 7.89648C15.9385 8.38867 16.2842 8.91309 16.542 9.46973C16.8057 10.0264 16.9375 10.6357 16.9375 11.2979C16.9375 12.0244 16.7705 12.6777 16.4365 13.2578C16.1084 13.832 15.6572 14.2861 15.083 14.6201C14.5088 14.9541 13.8613 15.1211 13.1406 15.1211C12.5137 15.1211 11.9219 15.001 11.3652 14.7607C10.8145 14.5205 10.416 14.1338 10.1699 13.6006H10.0557C10.0615 13.917 10.1377 14.2129 10.2842 14.4883C10.4307 14.7578 10.6123 15.0068 10.8291 15.2354C11.0459 15.458 11.2598 15.6602 11.4707 15.8418C11.6816 16.0234 11.8545 16.1787 11.9893 16.3076C12.165 16.4775 12.2764 16.665 12.3232 16.8701C12.376 17.0752 12.3701 17.2715 12.3057 17.459C12.2412 17.6465 12.1299 17.7988 11.9717 17.916C11.8193 18.0391 11.6201 18.1006 11.374 18.1006H5.62598C5.38574 18.1006 5.18359 18.0391 5.01953 17.916C4.86133 17.7988 4.75 17.6465 4.68555 17.459C4.62695 17.2715 4.62109 17.0752 4.66797 16.8701C4.7207 16.665 4.83496 16.4775 5.01074 16.3076C5.14551 16.1787 5.31836 16.0234 5.5293 15.8418C5.74609 15.6602 5.95996 15.458 6.1709 15.2354C6.3877 15.0068 6.56934 14.7578 6.71582 14.4883C6.8623 14.2129 6.93848 13.917 6.94434 13.6006H6.83008C6.58398 14.1338 6.18262 14.5205 5.62598 14.7607C5.0752 15.001 4.48633 15.1211 3.85938 15.1211C3.13867 15.1211 2.49121 14.9541 1.91699 14.6201C1.34277 14.2861 0.888672 13.832 0.554688 13.2578C0.226562 12.6777 0.0625 12.0244 0.0625 11.2979Z" fill="#31E379"/>
</svg>
