<svg width="26" height="17" viewBox="0 0 26 17" fill="none" xmlns="http://www.w3.org/2000/svg">
<path d="M12.1123 16.5996C11.3916 16.5996 10.8877 16.4912 10.6006 16.2744C10.3135 16.0635 10.1699 15.7559 10.1699 15.3516C10.1699 14.7832 10.3398 14.1885 10.6797 13.5674C11.0254 12.9463 11.5205 12.3633 12.165 11.8184C12.8154 11.2734 13.5977 10.8311 14.5117 10.4912C15.4258 10.1514 16.4512 9.98145 17.5879 9.98145C18.7305 9.98145 19.7588 10.1514 20.6729 10.4912C21.5869 10.8311 22.3662 11.2734 23.0107 11.8184C23.6611 12.3633 24.1592 12.9463 24.5049 13.5674C24.8506 14.1885 25.0234 14.7832 25.0234 15.3516C25.0234 15.7559 24.877 16.0635 24.584 16.2744C24.2969 16.4912 23.793 16.5996 23.0723 16.5996H12.1123ZM17.5967 8.41699C16.9521 8.41699 16.3604 8.24414 15.8213 7.89844C15.2881 7.55273 14.8604 7.08691 14.5381 6.50098C14.2158 5.91504 14.0547 5.25879 14.0547 4.53223C14.0547 3.81738 14.2158 3.17285 14.5381 2.59863C14.8662 2.01855 15.2998 1.55859 15.8389 1.21875C16.3779 0.878906 16.9639 0.708984 17.5967 0.708984C18.2354 0.708984 18.8213 0.875977 19.3545 1.20996C19.8936 1.54395 20.3242 2.00098 20.6465 2.58105C20.9746 3.15527 21.1387 3.7998 21.1387 4.51465C21.1387 5.24707 20.9746 5.90918 20.6465 6.50098C20.3242 7.08691 19.8936 7.55273 19.3545 7.89844C18.8213 8.24414 18.2354 8.41699 17.5967 8.41699ZM2.59375 16.5996C2.00195 16.5996 1.58301 16.4795 1.33691 16.2393C1.09082 16.0049 0.967773 15.6709 0.967773 15.2373C0.967773 14.6396 1.12012 14.0332 1.4248 13.418C1.72949 12.7969 2.16309 12.2256 2.72559 11.7041C3.29395 11.1826 3.97363 10.7607 4.76465 10.4385C5.56152 10.1162 6.45215 9.95508 7.43652 9.95508C8.2334 9.95508 8.94531 10.0605 9.57227 10.2715C10.2051 10.4766 10.7646 10.7344 11.251 11.0449C10.7529 11.4375 10.3223 11.8828 9.95898 12.3809C9.5957 12.873 9.31445 13.3799 9.11523 13.9014C8.92188 14.417 8.8252 14.9092 8.8252 15.3779C8.8252 15.8525 8.94238 16.2598 9.17676 16.5996H2.59375ZM7.43652 8.61914C6.87988 8.61914 6.36719 8.46973 5.89844 8.1709C5.42969 7.86621 5.05469 7.45898 4.77344 6.94922C4.49219 6.43359 4.35156 5.8623 4.35156 5.23535C4.35156 4.6084 4.49219 4.0459 4.77344 3.54785C5.06055 3.04395 5.43848 2.64551 5.90723 2.35254C6.37598 2.05371 6.88574 1.9043 7.43652 1.9043C7.9873 1.9043 8.49707 2.05078 8.96582 2.34375C9.44043 2.63086 9.81836 3.02637 10.0996 3.53027C10.3809 4.02832 10.5215 4.59082 10.5215 5.21777C10.5215 5.85645 10.3809 6.43359 10.0996 6.94922C9.81836 7.45898 9.44336 7.86621 8.97461 8.1709C8.50586 8.46973 7.99316 8.61914 7.43652 8.61914Z" fill="#31E379"/>
</svg>
