<svg width="15" height="21" viewBox="0 0 15 21" fill="none" xmlns="http://www.w3.org/2000/svg">
<path d="M2.32715 19.0654C1.72949 18.96 1.27539 18.7314 0.964844 18.3799C0.660156 18.0283 0.507812 17.5566 0.507812 16.9648V4.81836C0.507812 4.36133 0.604492 3.97754 0.797852 3.66699C0.99707 3.35059 1.26953 3.125 1.61523 2.99023C1.9668 2.84961 2.37109 2.82031 2.82812 2.90234L12.2324 4.56348C13.1582 4.72754 13.8496 5.01758 14.3066 5.43359C14.7637 5.84961 14.9922 6.51758 14.9922 7.4375V18.0459C14.9922 18.7139 14.8721 19.2705 14.6318 19.7158C14.3916 20.167 14.0488 20.4834 13.6035 20.665C13.1582 20.8467 12.6279 20.8848 12.0127 20.7793L2.32715 19.0654ZM4.06738 8.14941L10.8701 9.35352C11.1045 9.39453 11.292 9.35059 11.4326 9.22168C11.5732 9.09277 11.6436 8.92285 11.6436 8.71191C11.6436 8.34277 11.4619 8.12012 11.0986 8.04395L4.33984 6.85742C4.10547 6.81641 3.91211 6.85742 3.75977 6.98047C3.61328 7.10352 3.54004 7.27051 3.54004 7.48145C3.54004 7.65723 3.58398 7.80664 3.67188 7.92969C3.76562 8.05273 3.89746 8.12598 4.06738 8.14941ZM4.06738 11.7529L10.8701 12.9658C11.1045 13.0068 11.292 12.9629 11.4326 12.834C11.5732 12.7051 11.6436 12.5322 11.6436 12.3154C11.6436 11.9404 11.4619 11.7207 11.0986 11.6562L4.33984 10.4697C4.10547 10.4346 3.91211 10.4785 3.75977 10.6016C3.61328 10.7188 3.54004 10.8799 3.54004 11.085C3.54004 11.2607 3.58691 11.4102 3.68066 11.5332C3.77441 11.6562 3.90332 11.7295 4.06738 11.7529ZM4.99902 2.04102L10.8965 1.00391C11.9805 0.810547 12.8359 0.930664 13.4629 1.36426C14.0957 1.79199 14.4209 2.48047 14.4385 3.42969L14.4473 4.01855C13.9023 3.71387 13.2373 3.49121 12.4521 3.35059L4.99902 2.04102Z" fill="#31E379"/>
</svg>
