<svg width="16" height="20" viewBox="0 0 16 20" fill="none" xmlns="http://www.w3.org/2000/svg">
<path d="M4.375 4.73242H11.415C11.5791 4.73242 11.7168 4.67676 11.8281 4.56543C11.9395 4.4541 11.9951 4.31641 11.9951 4.15234C11.9951 3.98828 11.9395 3.85059 11.8281 3.73926C11.7168 3.62207 11.5791 3.56348 11.415 3.56348H4.375C4.20508 3.56348 4.06152 3.62207 3.94434 3.73926C3.83301 3.85059 3.77734 3.98828 3.77734 4.15234C3.77734 4.31641 3.83301 4.4541 3.94434 4.56543C4.06152 4.67676 4.20508 4.73242 4.375 4.73242ZM4.375 7.35156H8.48828C8.6582 7.35156 8.79883 7.2959 8.91016 7.18457C9.02148 7.07324 9.07715 6.93555 9.07715 6.77148C9.07715 6.61328 9.02148 6.47852 8.91016 6.36719C8.79883 6.25 8.6582 6.19141 8.48828 6.19141H4.375C4.20508 6.19141 4.06152 6.25 3.94434 6.36719C3.83301 6.47852 3.77734 6.61328 3.77734 6.77148C3.77734 6.93555 3.83301 7.07324 3.94434 7.18457C4.06152 7.2959 4.20508 7.35156 4.375 7.35156ZM4.50684 16.0791H11.002C11.7871 16.0791 12.1797 15.6836 12.1797 14.8926V9.99707C12.1797 9.20605 11.7871 8.81055 11.002 8.81055H4.50684C4.13184 8.81055 3.83887 8.91016 3.62793 9.10938C3.42285 9.30859 3.32031 9.60449 3.32031 9.99707V14.8926C3.32031 15.2793 3.42285 15.5752 3.62793 15.7803C3.83887 15.9795 4.13184 16.0791 4.50684 16.0791ZM0.208984 16.29V3.02734C0.208984 2.08398 0.449219 1.36914 0.929688 0.882812C1.41016 0.390625 2.12207 0.144531 3.06543 0.144531H12.4258C13.3691 0.144531 14.0811 0.390625 14.5615 0.882812C15.042 1.36914 15.2822 2.08398 15.2822 3.02734V16.29C15.2822 17.2393 15.042 17.957 14.5615 18.4434C14.0811 18.9297 13.3691 19.1729 12.4258 19.1729H3.06543C2.12207 19.1729 1.41016 18.9297 0.929688 18.4434C0.449219 17.957 0.208984 17.2393 0.208984 16.29Z" fill="#31E379"/>
</svg>
